<svg width="28" height="31" viewBox="0 0 28 31" fill="none" xmlns="http://www.w3.org/2000/svg">
<path d="M20.005 0.205811C18.1577 0.41928 16.4588 1.32138 15.2473 2.73212C14.6562 3.38526 14.2115 4.15715 13.9429 4.99612C13.6743 5.83509 13.588 6.72176 13.6899 7.59675C14.6187 7.57827 15.5316 7.35272 16.3621 6.93655C17.1926 6.52039 17.9197 5.9241 18.4904 5.19118C19.0645 4.50436 19.4944 3.70901 19.7546 2.85251C20.0148 1.99602 20.1 1.0959 20.005 0.205811Z" fill="black"/>
<path d="M26.6045 10.5113C25.8957 9.58634 24.9927 8.828 23.9593 8.28961C22.9258 7.75122 21.7869 7.44585 20.6227 7.39502C17.8151 7.39502 16.6261 8.71397 14.676 8.71397C12.6647 8.71397 11.1364 7.39961 8.70791 7.39961C7.38546 7.46598 6.0991 7.85359 4.96015 8.52892C3.8212 9.20425 2.86397 10.1469 2.1713 11.2754C-0.0936683 14.7187 0.294525 21.1942 3.96401 26.7114C5.27684 28.6845 7.03134 30.9036 9.32382 30.9235C11.3657 30.9433 11.9403 29.6397 14.705 29.6259C17.4697 29.6122 17.9955 30.9403 20.0312 30.9189C22.3237 30.9021 24.176 28.443 25.4888 26.47C26.2811 25.2964 26.9583 24.0492 27.5108 22.7455C26.2925 22.303 25.2281 21.5179 24.4455 20.4847C23.663 19.4515 23.1957 18.2141 23.1 16.9215C23.0042 15.629 23.2841 14.3362 23.9058 13.199C24.5276 12.0617 25.4647 11.1284 26.6045 10.5113Z" fill="black"/>
</svg>
