<svg width="35" height="33" viewBox="0 0 35 33" fill="none" xmlns="http://www.w3.org/2000/svg">
<path fill-rule="evenodd" clip-rule="evenodd" d="M8.12739 16.5119C8.12739 15.4697 8.30974 14.4703 8.6356 13.533L2.93509 9.40332C1.82406 11.5433 1.19824 13.9548 1.19824 16.5119C1.19824 19.0671 1.82353 21.4768 2.93271 23.6155L8.63005 19.4778C8.30736 18.5448 8.12739 17.5492 8.12739 16.5119Z" fill="#FBBC05"/>
<path fill-rule="evenodd" clip-rule="evenodd" d="M18.1357 7.02986C20.5224 7.02986 22.6781 7.83218 24.3719 9.14499L29.2991 4.47696C26.2966 1.99702 22.4471 0.465332 18.1357 0.465332C11.442 0.465332 5.68916 4.09686 2.93457 9.40324L8.63482 13.533C9.94829 9.75049 13.6923 7.02986 18.1357 7.02986Z" fill="#EA4335"/>
<path fill-rule="evenodd" clip-rule="evenodd" d="M18.1357 25.9938C13.6926 25.9938 9.94855 23.2732 8.63508 19.4907L2.93457 23.6197C5.68916 28.9268 11.442 32.5583 18.1357 32.5583C22.2669 32.5583 26.2113 31.1666 29.1715 28.559L23.7606 24.5905C22.2338 25.5029 20.3112 25.9938 18.1357 25.9938Z" fill="#34A853"/>
<path fill-rule="evenodd" clip-rule="evenodd" d="M34.3036 16.5119C34.3036 15.5637 34.1495 14.5425 33.9185 13.5945H18.1357V19.7942H27.2206C26.7663 21.9081 25.53 23.533 23.7607 24.5906L29.1715 28.5591C32.281 25.8212 34.3036 21.7424 34.3036 16.5119Z" fill="#4285F4"/>
</svg>
